<?xml version="1.0" encoding="utf-8"?>
<!-- Generator: Adobe Illustrator 24.1.1, SVG Export Plug-In . SVG Version: 6.00 Build 0)  -->
<svg version="1.1" id="Слой_1" xmlns="http://www.w3.org/2000/svg" xmlns:xlink="http://www.w3.org/1999/xlink" x="0px" y="0px"
	 viewBox="0 0 229.3 14" style="enable-background:new 0 0 229.3 14;" xml:space="preserve">
<style type="text/css">
	.st0{fill:#C3C6C7;}
</style>
<g>
	<path class="st0" d="M115.8,1.1l-1.1,1l-1.1-1c-1.7-1.5-4.4-1.5-6,0c-1.9,1.7-1.9,4.5,0,6.3l7.2,6.6l7.2-6.6c1.9-1.7,1.9-4.5,0-6.3
		C120.1-0.4,117.4-0.4,115.8,1.1z M120.8,6.3l-6.1,5.7l-6.1-5.7c-0.6-0.6-0.9-1.3-0.9-2.1s0.1-1.4,0.8-2c0.5-0.5,1.3-0.8,2.1-0.8
		c0.8,0,1.5,0.5,2.1,1l2.1,1.8l2.1-1.8c0.5-0.5,1.3-1,2.1-1c0.8,0,1.5,0.3,2.1,0.8c0.6,0.6,0.8,1.2,0.8,2
		C121.6,5,121.4,5.7,120.8,6.3z"/>
	<rect x="0.2" y="6.9" class="st0" width="89.8" height="1"/>
	<rect x="139.3" y="6.9" class="st0" width="89.8" height="1"/>
</g>
</svg>
