<?xml version="1.0" encoding="utf-8"?>
<!-- Generator: Adobe Illustrator 22.0.1, SVG Export Plug-In . SVG Version: 6.00 Build 0)  -->
<svg version="1.1" id="Слой_1" xmlns="http://www.w3.org/2000/svg" xmlns:xlink="http://www.w3.org/1999/xlink" x="0px" y="0px"
	 viewBox="0 0 17.7 14" style="enable-background:new 0 0 17.7 14;" xml:space="preserve">
<style type="text/css">
	.st0{fill:#19967C;}
</style>
<path class="st0" d="M9.9,1.1l-1.1,1l-1.1-1c-1.7-1.5-4.4-1.5-6,0c-1.9,1.7-1.9,4.5,0,6.3L8.9,14l7.2-6.6c1.9-1.7,1.9-4.5,0-6.3
	C14.2-0.4,11.5-0.4,9.9,1.1z M14.9,6.3L8.8,12L2.7,6.3C2.1,5.7,1.8,5,1.8,4.2s0.1-1.4,0.8-2c0.5-0.5,1.3-0.8,2.1-0.8
	c0.8,0,1.5,0.5,2.1,1l2.1,1.8L11,2.4c0.5-0.5,1.3-1,2.1-1c0.8,0,1.5,0.3,2.1,0.8c0.6,0.6,0.8,1.2,0.8,2C15.7,5,15.5,5.7,14.9,6.3z"
	/>
</svg>
